<svg width="1280" height="640" version="1.1" viewBox="0 0 1280 640" xmlns="http://www.w3.org/2000/svg"><rect transform="translate(0 -412.36)" y="412.36" width="1280" height="640" fill="#4caf50"/><g><rect transform="translate(0 -412.36)" x="80" y="492.36" width="1120" height="480" fill="#f6f0bb"/><g transform="translate(0,-40)"><g transform="translate(6,42)"><rect x="334" y="248.18" width="59.464" height="59.464" fill="#3050e8"/><circle cx="438.06" cy="277.91" r="29.732" fill="#e050e8"/><path d="m513.86 307.1-9.6605-19.574-21.601-3.1389 15.631-15.236-3.69-21.514 19.321 10.158 19.321-10.158-3.69 21.514 15.631 15.236-21.601 3.1389z" fill="#dc0000"/><path d="m591.32 307.64-34.331-59.464h34.331 34.331l-17.166 29.732z" fill="#17ec00"/></g><g transform="translate(34,42)"><rect x="768.09" y="248.18" width="59.464" height="59.464" fill="#3050e8"/><circle cx="955.4" cy="277.91" r="29.732" fill="#e050e8"/><path d="m721.98 307.1-9.6605-19.574-21.601-3.1389 15.631-15.236-3.69-21.514 19.321 10.158 19.321-10.158-3.69 21.514 15.631 15.236-21.601 3.1389z" fill="#dc0000"/><path d="m879.72 307.64-34.331-59.464h34.331 34.331l-17.166 29.732z" fill="#17ec00"/></g><text x="209" y="355.75" fill="#4caf50" font-family="sans-serif" font-size="13.75px" letter-spacing="0px" stroke-width="1px" word-spacing="50px" style="line-height:125%" xml:space="preserve"><tspan x="209" y="355.75" fill="#4caf50" font-size="141px">ğœ¹(       ,       )</tspan></text></g></g><g transform="translate(0 -412.36)"><g transform="matrix(5.0794 0 0 5.0794 1077.4 849.73)"><rect x=".125" y=".125" width="15.75" height="15.75" rx="2" fill="#bfd9bf" stroke="#862d2d" stroke-width=".25"/><text x="1.3" y="8.5" fill="#862d2d" font-family="sans-serif" font-size="10px">VC</text><text x="4.6999998" y="14.5" fill="#862d2d" font-family="sans-serif" font-size="10px">A</text></g><text x="201.14062" y="583.51074" fill="#000000" font-family="sans-serif" font-size="64px" letter-spacing="0px" stroke-width="1px" word-spacing="0px" style="line-height:125%" xml:space="preserve"><tspan x="201.14062" y="583.51074" fill="#862d2d" font-size="70.4px">JavaPermutationTools (JPT)</tspan></text><text x="639.77081" y="818.36224" font-family="sans-serif" letter-spacing="0px" stroke-width="1px" text-anchor="middle" word-spacing="0px" style="line-height:125%" xml:space="preserve"><tspan x="639.77081" y="818.36224" fill="#305030" font-size="47px" text-align="center">A Java library for computation</tspan><tspan x="639.77081" y="871.69562" fill="#305030" font-size="47px" text-align="center">on permutations and sequences</tspan><tspan x="639.77081" y="925.02899" fill="#862d2d" font-size="36px" text-align="center">https://jpt.cicirello.org/</tspan></text></g></svg>
